<?xml version="1.0" encoding="utf-8"?>
<!-- Generator: Adobe Illustrator 24.0.2, SVG Export Plug-In . SVG Version: 6.00 Build 0)  -->
<svg version="1.1" id="Calque_1" xmlns="http://www.w3.org/2000/svg" xmlns:xlink="http://www.w3.org/1999/xlink" x="0px" y="0px"
	 viewBox="0 0 14400 14400" style="enable-background:new 0 0 14400 14400;" xml:space="preserve">
<style type="text/css">
	.st0{fill:none;}
	.st1{fill:#ECEFC4;}
	.st2{fill:url(#Nouveau_motif_2);}
</style>
<pattern  x="6239.5" y="6659.5" width="87.9" height="79.4" patternUnits="userSpaceOnUse" id="Nouveau_motif_2" viewBox="0 -85.1 87.9 79.4" style="overflow:visible;">
	<g>
		<rect y="-85.1" class="st0" width="87.9" height="79.4"/>
		<g>
			<path class="st1" d="M15.3,0h-1.8v-3.1H9.1V0H7.3v-4.9v-0.6v-1.2h0.6V-8h0.6v-1.2h0.6v-1.2h0.6v-1.2h0.6v-1.2H11v-0.6h0.6v0.6
				h0.6v1.2h0.6v1.2h0.6v1.2H14V-8h0.6v1.2h0.6v1.2v0.6V0z M13.4-4.9v-0.6v-0.6h-0.6v-1.2h-0.6v-1.2h-0.6v-1.2H11v1.2h-0.6v1.2H9.7
				v1.2H9.1v0.6v0.6H13.4z"/>
			<path class="st1" d="M23.7-7.4h-1.2V-8h-4.3v0.6h-0.6V0h-1.8v-8h0.6v-0.6h0.6v-0.6h0.6v-0.6h5.5v0.6h0.6V-7.4z"/>
			<path class="st1" d="M32.1-1.8h-0.6v0.6h-0.6v0.6h-0.6V0h-3.7v-0.6H26v-0.6h-0.6v-0.6h-0.6v-0.6h-0.6V-11H26v2.5h5.5v1.8H26v3.7
				h0.6v0.6h0.6v0.6h2.5v-0.6h0.6v-0.6h1.8V-1.8z"/>
			<path class="st1" d="M42.9,0h-1.8v-3.1h-4.3V0h-1.8v-4.9v-0.6v-1.2h0.6V-8h0.6v-1.2h0.6v-1.2h0.6v-1.2H38v-1.2h0.6v-0.6h0.6v0.6
				h0.6v1.2h0.6v1.2h0.6v1.2h0.6V-8h0.6v1.2h0.6v1.2v0.6V0z M41.1-4.9v-0.6v-0.6h-0.6v-1.2h-0.6v-1.2h-0.6v-1.2h-0.6v1.2H38v1.2
				h-0.6v1.2h-0.6v0.6v0.6H41.1z"/>
			<path class="st1" d="M51.3-1.8h-0.6v0.6h-0.6v0.6h-0.6V0h-3.7v-0.6h-0.6v-0.6h-0.6v-0.6H44v-0.6h-0.6V-11h1.8v2.5h5.5v1.8h-5.5
				v3.7h0.6v0.6h0.6v0.6h2.5v-0.6h0.6v-0.6h1.8V-1.8z"/>
			<path class="st1" d="M59.7-1.8h-0.6v0.6h-0.6v0.6h-0.6V0h-3.7v-0.6h-0.6v-0.6H53v-0.6h-0.6v-0.6h-0.6V-11h1.8v2.5h5.5v1.8h-5.5
				v3.7h0.6v0.6h0.6v0.6h2.5v-0.6h0.6v-0.6h1.8V-1.8z"/>
			<path class="st1" d="M68.1,0h-1.8v-1.2h-0.6v0.6h-0.6V0H62v-0.6h-0.6v-0.6h-0.6v-0.6h-0.6V-8h0.6v-0.6h0.6v-0.6H62v-0.6h3.1v0.6
				h0.6v0.6h0.6v-1.2h1.8V0z M66.3-3.1v-3.7h-0.6v-0.6h-0.6V-8h-2.4v0.6H62v4.9h0.6v0.6h2.4v-0.6h0.6v-0.6H66.3z"/>
			<path class="st1" d="M76.5-1.8h-0.6v0.6h-0.6v0.6h-0.6V0H71v-0.6h-0.6v-0.6h-0.6v-0.6h-0.6v-0.6h-0.6v-4.9h0.6V-8h0.6v-0.6h0.6
				v-0.6H71v-0.6h3.7v0.6h0.6v0.6h0.6V-8h0.6v1.2h-1.8v-0.6h-0.6V-8h-2.5v0.6H71v0.6h-0.6v3.7H71v0.6h0.6v0.6h2.5v-0.6h0.6v-0.6h1.8
				V-1.8z"/>
			<path class="st1" d="M85,0h-1.8v-0.6h-0.6v-1.2h-0.6v-1.2h-0.6v-1.2h-0.6v0.6h-0.6v0.6h-0.6v0.6h-0.6V0H77v-13.5h1.8v8.6h0.6
				v-0.6h0.6v-0.6h0.6v-0.6h0.6v-0.6h0.6V-8h0.6v-0.6h0.6v-0.6h0.6v-0.6H85V-8h-0.6v0.6h-0.6v0.6h-0.6v0.6h-0.6v1.2h0.6v1.2h0.6v1.2
				h0.6v1.2H85V0z"/>
		</g>
		<g>
			<path class="st1" d="M15.3-19.8h-1.8v-3.1H9.1v3.1H7.3v-4.9v-0.6v-1.2h0.6v-1.2h0.6V-29h0.6v-1.2h0.6v-1.2h0.6v-1.2H11v-0.6h0.6
				v0.6h0.6v1.2h0.6v1.2h0.6v1.2H14v1.2h0.6v1.2h0.6v1.2v0.6V-19.8z M13.4-24.7v-0.6V-26h-0.6v-1.2h-0.6v-1.2h-0.6v-1.2H11v1.2h-0.6
				v1.2H9.7v1.2H9.1v0.6v0.6H13.4z"/>
			<path class="st1" d="M23.7-27.2h-1.2v-0.6h-4.3v0.6h-0.6v7.4h-1.8v-8h0.6v-0.6h0.6V-29h0.6v-0.6h5.5v0.6h0.6V-27.2z"/>
			<path class="st1" d="M32.1-21.7h-0.6v0.6h-0.6v0.6h-0.6v0.6h-3.7v-0.6H26v-0.6h-0.6v-0.6h-0.6v-0.6h-0.6v-8.6H26v2.5h5.5v1.8H26
				v3.7h0.6v0.6h0.6v0.6h2.5v-0.6h0.6v-0.6h1.8V-21.7z"/>
			<path class="st1" d="M42.9-19.8h-1.8v-3.1h-4.3v3.1h-1.8v-4.9v-0.6v-1.2h0.6v-1.2h0.6V-29h0.6v-1.2h0.6v-1.2H38v-1.2h0.6v-0.6
				h0.6v0.6h0.6v1.2h0.6v1.2h0.6v1.2h0.6v1.2h0.6v1.2h0.6v1.2v0.6V-19.8z M41.1-24.7v-0.6V-26h-0.6v-1.2h-0.6v-1.2h-0.6v-1.2h-0.6
				v1.2H38v1.2h-0.6v1.2h-0.6v0.6v0.6H41.1z"/>
			<path class="st1" d="M51.3-21.7h-0.6v0.6h-0.6v0.6h-0.6v0.6h-3.7v-0.6h-0.6v-0.6h-0.6v-0.6H44v-0.6h-0.6v-8.6h1.8v2.5h5.5v1.8
				h-5.5v3.7h0.6v0.6h0.6v0.6h2.5v-0.6h0.6v-0.6h1.8V-21.7z"/>
			<path class="st1" d="M59.7-21.7h-0.6v0.6h-0.6v0.6h-0.6v0.6h-3.7v-0.6h-0.6v-0.6H53v-0.6h-0.6v-0.6h-0.6v-8.6h1.8v2.5h5.5v1.8
				h-5.5v3.7h0.6v0.6h0.6v0.6h2.5v-0.6h0.6v-0.6h1.8V-21.7z"/>
			<path class="st1" d="M68.1-19.8h-1.8v-1.2h-0.6v0.6h-0.6v0.6H62v-0.6h-0.6v-0.6h-0.6v-0.6h-0.6v-6.1h0.6v-0.6h0.6V-29H62v-0.6
				h3.1v0.6h0.6v0.6h0.6v-1.2h1.8V-19.8z M66.3-22.9v-3.7h-0.6v-0.6h-0.6v-0.6h-2.4v0.6H62v4.9h0.6v0.6h2.4v-0.6h0.6v-0.6H66.3z"/>
			<path class="st1" d="M76.5-21.7h-0.6v0.6h-0.6v0.6h-0.6v0.6H71v-0.6h-0.6v-0.6h-0.6v-0.6h-0.6v-0.6h-0.6v-4.9h0.6v-0.6h0.6v-0.6
				h0.6V-29H71v-0.6h3.7v0.6h0.6v0.6h0.6v0.6h0.6v1.2h-1.8v-0.6h-0.6v-0.6h-2.5v0.6H71v0.6h-0.6v3.7H71v0.6h0.6v0.6h2.5v-0.6h0.6
				v-0.6h1.8V-21.7z"/>
			<path class="st1" d="M85-19.8h-1.8v-0.6h-0.6v-1.2h-0.6v-1.2h-0.6v-1.2h-0.6v0.6h-0.6v0.6h-0.6v0.6h-0.6v2.5H77v-13.5h1.8v8.6
				h0.6v-0.6h0.6V-26h0.6v-0.6h0.6v-0.6h0.6v-0.6h0.6v-0.6h0.6V-29h0.6v-0.6H85v1.8h-0.6v0.6h-0.6v0.6h-0.6v0.6h-0.6v1.2h0.6v1.2
				h0.6v1.2h0.6v1.2H85V-19.8z"/>
		</g>
		<g>
			<path class="st1" d="M15.3-39.7h-1.8v-3.1H9.1v3.1H7.3v-4.9v-0.6v-1.2h0.6v-1.2h0.6v-1.2h0.6v-1.2h0.6v-1.2h0.6v-1.2H11v-0.6h0.6
				v0.6h0.6v1.2h0.6v1.2h0.6v1.2H14v1.2h0.6v1.2h0.6v1.2v0.6V-39.7z M13.4-44.6v-0.6v-0.6h-0.6V-47h-0.6v-1.2h-0.6v-1.2H11v1.2h-0.6
				v1.2H9.7v1.2H9.1v0.6v0.6H13.4z"/>
			<path class="st1" d="M23.7-47h-1.2v-0.6h-4.3v0.6h-0.6v7.4h-1.8v-8h0.6v-0.6h0.6v-0.6h0.6v-0.6h5.5v0.6h0.6V-47z"/>
			<path class="st1" d="M32.1-41.5h-0.6v0.6h-0.6v0.6h-0.6v0.6h-3.7v-0.6H26v-0.6h-0.6v-0.6h-0.6v-0.6h-0.6v-8.6H26v2.5h5.5v1.8H26
				v3.7h0.6v0.6h0.6v0.6h2.5v-0.6h0.6v-0.6h1.8V-41.5z"/>
			<path class="st1" d="M42.9-39.7h-1.8v-3.1h-4.3v3.1h-1.8v-4.9v-0.6v-1.2h0.6v-1.2h0.6v-1.2h0.6v-1.2h0.6v-1.2H38v-1.2h0.6v-0.6
				h0.6v0.6h0.6v1.2h0.6v1.2h0.6v1.2h0.6v1.2h0.6v1.2h0.6v1.2v0.6V-39.7z M41.1-44.6v-0.6v-0.6h-0.6V-47h-0.6v-1.2h-0.6v-1.2h-0.6
				v1.2H38v1.2h-0.6v1.2h-0.6v0.6v0.6H41.1z"/>
			<path class="st1" d="M51.3-41.5h-0.6v0.6h-0.6v0.6h-0.6v0.6h-3.7v-0.6h-0.6v-0.6h-0.6v-0.6H44v-0.6h-0.6v-8.6h1.8v2.5h5.5v1.8
				h-5.5v3.7h0.6v0.6h0.6v0.6h2.5v-0.6h0.6v-0.6h1.8V-41.5z"/>
			<path class="st1" d="M59.7-41.5h-0.6v0.6h-0.6v0.6h-0.6v0.6h-3.7v-0.6h-0.6v-0.6H53v-0.6h-0.6v-0.6h-0.6v-8.6h1.8v2.5h5.5v1.8
				h-5.5v3.7h0.6v0.6h0.6v0.6h2.5v-0.6h0.6v-0.6h1.8V-41.5z"/>
			<path class="st1" d="M68.1-39.7h-1.8v-1.2h-0.6v0.6h-0.6v0.6H62v-0.6h-0.6v-0.6h-0.6v-0.6h-0.6v-6.1h0.6v-0.6h0.6v-0.6H62v-0.6
				h3.1v0.6h0.6v0.6h0.6v-1.2h1.8V-39.7z M66.3-42.7v-3.7h-0.6V-47h-0.6v-0.6h-2.4v0.6H62v4.9h0.6v0.6h2.4v-0.6h0.6v-0.6H66.3z"/>
			<path class="st1" d="M76.5-41.5h-0.6v0.6h-0.6v0.6h-0.6v0.6H71v-0.6h-0.6v-0.6h-0.6v-0.6h-0.6v-0.6h-0.6V-47h0.6v-0.6h0.6v-0.6
				h0.6v-0.6H71v-0.6h3.7v0.6h0.6v0.6h0.6v0.6h0.6v1.2h-1.8V-47h-0.6v-0.6h-2.5v0.6H71v0.6h-0.6v3.7H71v0.6h0.6v0.6h2.5v-0.6h0.6
				v-0.6h1.8V-41.5z"/>
			<path class="st1" d="M85-39.7h-1.8v-0.6h-0.6v-1.2h-0.6v-1.2h-0.6V-44h-0.6v0.6h-0.6v0.6h-0.6v0.6h-0.6v2.5H77v-13.5h1.8v8.6h0.6
				v-0.6h0.6v-0.6h0.6v-0.6h0.6V-47h0.6v-0.6h0.6v-0.6h0.6v-0.6h0.6v-0.6H85v1.8h-0.6v0.6h-0.6v0.6h-0.6v0.6h-0.6v1.2h0.6v1.2h0.6
				v1.2h0.6v1.2H85V-39.7z"/>
		</g>
		<g>
			<path class="st1" d="M15.3-59.5h-1.8v-3.1H9.1v3.1H7.3v-4.9V-65v-1.2h0.6v-1.2h0.6v-1.2h0.6v-1.2h0.6v-1.2h0.6v-1.2H11V-73h0.6
				v0.6h0.6v1.2h0.6v1.2h0.6v1.2H14v1.2h0.6v1.2h0.6v1.2v0.6V-59.5z M13.4-64.4V-65v-0.6h-0.6v-1.2h-0.6v-1.2h-0.6v-1.2H11v1.2h-0.6
				v1.2H9.7v1.2H9.1v0.6v0.6H13.4z"/>
			<path class="st1" d="M23.7-66.9h-1.2v-0.6h-4.3v0.6h-0.6v7.4h-1.8v-8h0.6v-0.6h0.6v-0.6h0.6v-0.6h5.5v0.6h0.6V-66.9z"/>
			<path class="st1" d="M32.1-61.4h-0.6v0.6h-0.6v0.6h-0.6v0.6h-3.7v-0.6H26v-0.6h-0.6v-0.6h-0.6V-62h-0.6v-8.6H26v2.5h5.5v1.8H26
				v3.7h0.6v0.6h0.6v0.6h2.5V-62h0.6v-0.6h1.8V-61.4z"/>
			<path class="st1" d="M42.9-59.5h-1.8v-3.1h-4.3v3.1h-1.8v-4.9V-65v-1.2h0.6v-1.2h0.6v-1.2h0.6v-1.2h0.6v-1.2H38v-1.2h0.6V-73h0.6
				v0.6h0.6v1.2h0.6v1.2h0.6v1.2h0.6v1.2h0.6v1.2h0.6v1.2v0.6V-59.5z M41.1-64.4V-65v-0.6h-0.6v-1.2h-0.6v-1.2h-0.6v-1.2h-0.6v1.2
				H38v1.2h-0.6v1.2h-0.6v0.6v0.6H41.1z"/>
			<path class="st1" d="M51.3-61.4h-0.6v0.6h-0.6v0.6h-0.6v0.6h-3.7v-0.6h-0.6v-0.6h-0.6v-0.6H44V-62h-0.6v-8.6h1.8v2.5h5.5v1.8
				h-5.5v3.7h0.6v0.6h0.6v0.6h2.5V-62h0.6v-0.6h1.8V-61.4z"/>
			<path class="st1" d="M59.7-61.4h-0.6v0.6h-0.6v0.6h-0.6v0.6h-3.7v-0.6h-0.6v-0.6H53v-0.6h-0.6V-62h-0.6v-8.6h1.8v2.5h5.5v1.8
				h-5.5v3.7h0.6v0.6h0.6v0.6h2.5V-62h0.6v-0.6h1.8V-61.4z"/>
			<path class="st1" d="M68.1-59.5h-1.8v-1.2h-0.6v0.6h-0.6v0.6H62v-0.6h-0.6v-0.6h-0.6v-0.6h-0.6v-6.1h0.6v-0.6h0.6v-0.6H62v-0.6
				h3.1v0.6h0.6v0.6h0.6v-1.2h1.8V-59.5z M66.3-62.6v-3.7h-0.6v-0.6h-0.6v-0.6h-2.4v0.6H62v4.9h0.6v0.6h2.4V-62h0.6v-0.6H66.3z"/>
			<path class="st1" d="M76.5-61.4h-0.6v0.6h-0.6v0.6h-0.6v0.6H71v-0.6h-0.6v-0.6h-0.6v-0.6h-0.6V-62h-0.6v-4.9h0.6v-0.6h0.6v-0.6
				h0.6v-0.6H71v-0.6h3.7v0.6h0.6v0.6h0.6v0.6h0.6v1.2h-1.8v-0.6h-0.6v-0.6h-2.5v0.6H71v0.6h-0.6v3.7H71v0.6h0.6v0.6h2.5V-62h0.6
				v-0.6h1.8V-61.4z"/>
			<path class="st1" d="M85-59.5h-1.8v-0.6h-0.6v-1.2h-0.6v-1.2h-0.6v-1.2h-0.6v0.6h-0.6v0.6h-0.6v0.6h-0.6v2.5H77V-73h1.8v8.6h0.6
				V-65h0.6v-0.6h0.6v-0.6h0.6v-0.6h0.6v-0.6h0.6v-0.6h0.6v-0.6h0.6v-0.6H85v1.8h-0.6v0.6h-0.6v0.6h-0.6v0.6h-0.6v1.2h0.6v1.2h0.6
				v1.2h0.6v1.2H85V-59.5z"/>
		</g>
		<g>
			<path class="st1" d="M15.3-79.4h-1.8v-3.1H9.1v3.1H7.3v-4.9v-0.6v-1.2h0.6v-1.2h0.6v-1.2h0.6v-1.2h0.6V-91h0.6v-1.2H11v-0.6h0.6
				v0.6h0.6v1.2h0.6v1.2h0.6v1.2H14v1.2h0.6v1.2h0.6v1.2v0.6V-79.4z M13.4-84.3v-0.6v-0.6h-0.6v-1.2h-0.6v-1.2h-0.6v-1.2H11v1.2
				h-0.6v1.2H9.7v1.2H9.1v0.6v0.6H13.4z"/>
			<path class="st1" d="M23.7-86.7h-1.2v-0.6h-4.3v0.6h-0.6v7.4h-1.8v-8h0.6v-0.6h0.6v-0.6h0.6v-0.6h5.5v0.6h0.6V-86.7z"/>
			<path class="st1" d="M32.1-81.2h-0.6v0.6h-0.6v0.6h-0.6v0.6h-3.7V-80H26v-0.6h-0.6v-0.6h-0.6v-0.6h-0.6v-8.6H26v2.5h5.5v1.8H26
				v3.7h0.6v0.6h0.6v0.6h2.5v-0.6h0.6v-0.6h1.8V-81.2z"/>
			<path class="st1" d="M42.9-79.4h-1.8v-3.1h-4.3v3.1h-1.8v-4.9v-0.6v-1.2h0.6v-1.2h0.6v-1.2h0.6v-1.2h0.6V-91H38v-1.2h0.6v-0.6
				h0.6v0.6h0.6v1.2h0.6v1.2h0.6v1.2h0.6v1.2h0.6v1.2h0.6v1.2v0.6V-79.4z M41.1-84.3v-0.6v-0.6h-0.6v-1.2h-0.6v-1.2h-0.6v-1.2h-0.6
				v1.2H38v1.2h-0.6v1.2h-0.6v0.6v0.6H41.1z"/>
			<path class="st1" d="M51.3-81.2h-0.6v0.6h-0.6v0.6h-0.6v0.6h-3.7V-80h-0.6v-0.6h-0.6v-0.6H44v-0.6h-0.6v-8.6h1.8v2.5h5.5v1.8
				h-5.5v3.7h0.6v0.6h0.6v0.6h2.5v-0.6h0.6v-0.6h1.8V-81.2z"/>
			<path class="st1" d="M59.7-81.2h-0.6v0.6h-0.6v0.6h-0.6v0.6h-3.7V-80h-0.6v-0.6H53v-0.6h-0.6v-0.6h-0.6v-8.6h1.8v2.5h5.5v1.8
				h-5.5v3.7h0.6v0.6h0.6v0.6h2.5v-0.6h0.6v-0.6h1.8V-81.2z"/>
			<path class="st1" d="M68.1-79.4h-1.8v-1.2h-0.6v0.6h-0.6v0.6H62V-80h-0.6v-0.6h-0.6v-0.6h-0.6v-6.1h0.6v-0.6h0.6v-0.6H62v-0.6
				h3.1v0.6h0.6v0.6h0.6v-1.2h1.8V-79.4z M66.3-82.4v-3.7h-0.6v-0.6h-0.6v-0.6h-2.4v0.6H62v4.9h0.6v0.6h2.4v-0.6h0.6v-0.6H66.3z"/>
			<path class="st1" d="M76.5-81.2h-0.6v0.6h-0.6v0.6h-0.6v0.6H71V-80h-0.6v-0.6h-0.6v-0.6h-0.6v-0.6h-0.6v-4.9h0.6v-0.6h0.6v-0.6
				h0.6v-0.6H71v-0.6h3.7v0.6h0.6v0.6h0.6v0.6h0.6v1.2h-1.8v-0.6h-0.6v-0.6h-2.5v0.6H71v0.6h-0.6v3.7H71v0.6h0.6v0.6h2.5v-0.6h0.6
				v-0.6h1.8V-81.2z"/>
			<path class="st1" d="M85-79.4h-1.8V-80h-0.6v-1.2h-0.6v-1.2h-0.6v-1.2h-0.6v0.6h-0.6v0.6h-0.6v0.6h-0.6v2.5H77v-13.5h1.8v8.6h0.6
				v-0.6h0.6v-0.6h0.6v-0.6h0.6v-0.6h0.6v-0.6h0.6V-88h0.6v-0.6h0.6v-0.6H85v1.8h-0.6v0.6h-0.6v0.6h-0.6v0.6h-0.6v1.2h0.6v1.2h0.6
				v1.2h0.6v1.2H85V-79.4z"/>
		</g>
	</g>
</pattern>
<rect x="5616.5" y="6450.5" class="st2" width="3178.7" height="1498.1"/>
</svg>
