<svg id="Calque_1" data-name="Calque 1" xmlns="http://www.w3.org/2000/svg" viewBox="0 0 500 500"><defs><style>.cls-1{fill:#fff;}</style></defs><title>logo</title><path class="cls-1" d="M409,248l28.56-28.56-14.28-14.28,28.55-28.55L437.6,162.35l28.55-28.56-14.28-14.28L480.43,91,466.15,76.68l28.56-28.56L480.43,33.85l14.28-14.28L480.43,5.29,466.15,19.57,451.87,5.29,423.32,33.85,409,19.57,380.49,48.13,366.21,33.85,337.65,62.4,323.37,48.13,294.82,76.68,280.54,62.4,252,91,237.71,76.68l-69.24,69.24L354.08,331.53l69.24-69.24Zm-71.39,14.27-99.94-99.94,28.55-28.56,14.28,14.28,28.56-28.55,14.27,14.27,28.56-28.55,14.28,14.27L394.76,91,409,105.24l-28.56,28.55,14.28,14.28-28.55,28.56,14.27,14.27-28.55,28.56,14.28,14.28Z"/><path class="cls-1" d="M262.3,423.32l69.23-69.24L145.92,168.47,76.68,237.71,91,252,62.4,280.54l14.28,14.28L48.13,323.37,62.4,337.65,33.85,366.21l14.28,14.28L19.57,409l14.28,14.28L5.29,451.87l14.28,14.28L5.29,480.43l14.28,14.28,14.28-14.28,14.28,14.28,28.55-28.56L91,480.43l28.56-28.56,14.27,14.28,28.56-28.55,14.28,14.27,28.55-28.55,14.28,14.28L248,409Zm-28.56-57.11-14.28-14.28-28.55,28.56-14.28-14.28-28.56,28.55-14.28-14.27L105.24,409,91,394.76l28.56-28.55-14.28-14.28,28.55-28.56L119.52,309.1l28.55-28.56-14.28-14.28,28.56-28.55,99.94,99.94Z"/></svg>