<?xml version="1.0" encoding="utf-8"?>
<!-- Generator: Adobe Illustrator 23.0.1, SVG Export Plug-In . SVG Version: 6.00 Build 0)  -->
<svg version="1.1" id="Calque_3" xmlns="http://www.w3.org/2000/svg" xmlns:xlink="http://www.w3.org/1999/xlink" x="0px" y="0px"
	 viewBox="0 0 291.92 426.65" style="enable-background:new 0 0 291.92 426.65;" xml:space="preserve">
<style type="text/css">
	.st0{fill:#FFFFFF;}
</style>
<g>
	<path class="st0" d="M195.65,124.11v43.02h63.69v-14h-49.69v-28.52H231v-14h-21.35V82.1h49.69v-14h-63.69v41.82
		c-16.24-3.26-28.52-17.63-28.52-34.82c0-19.59,15.93-35.52,35.52-35.52v-14c-27.31,0-49.52,22.21-49.52,49.52
		C153.13,100.03,171.65,120.7,195.65,124.11z"/>
	<path class="st0" d="M266.34,188.32l-14,3.72v176.48l-71.06-157.58l-15.66,4.17l-43.14,109.15H99.89v-151.7
		c24.96-12.98,42.07-39.08,42.07-69.11c0-42.94-34.93-77.87-77.86-77.87c-12.14,0-23.79,2.73-34.63,8.12l6.24,12.53
		c8.88-4.42,18.43-6.66,28.39-6.66c35.21,0,63.86,28.65,63.86,63.87c0,21.96-11.14,41.36-28.07,52.86v-37.8h-14v44.97
		c-6.81,2.48-14.15,3.83-21.8,3.83c-9.96,0-19.51-2.24-28.39-6.66l-10.12-5.03v67.9l14-3.72v-42.43c7.86,2.62,16.07,3.94,24.51,3.94
		c7.57,0,14.88-1.11,21.8-3.13v160.08h31.06L99.23,383.1L38.68,248.87l-13.11,3.49v148.72h14V284.9l52.4,116.17h15.21L132,338.26
		h91.33l28.33,62.81h14.68L266.34,188.32L266.34,188.32z M137.53,324.26l37.12-93.94l42.36,93.94H137.53z"/>
</g>
<path class="st0" d="M291.92,426.65H0V0h291.92V426.65z M13.15,413.49h265.61V13.15H13.15V413.49z"/>
</svg>
